<svg 
     fill="currentColor"
      viewBox="0 0 512 512"
      xmlns="http://www.w3.org/2000/svg">
    <path
        fillRule="evenodd"
        d="M197.68,461.89l-.5-.51L95.39,396.69l.71-.91h-.6V340.09L65.27,317.76V216.58l30.27-24.86V302.29l17.64,13.14,38.71-24.76,26,19.71-51.53,33.35v36.69l71.36,45L220,410.35l.41-108.66L104.8,219.82l.5-.61L105,219V109.44l30.27,24.66v70.15l115.43,81.26h.4l-.5,140.3.19.2-52.86,35.78v.1ZM250.86,258l-30.23-25.47V95.9L199.4,84.77l-59.13,34.48-24-21.33,82-47.81.2.2.1-.3L251,77.5l-.31.82h.21Z"
      />
    <path
    fillRule="evenodd"
    d="M314.22,461.89l-.1-.1h0v-.1l-53-35.68.2-.2-.51-140.3h.4l115.54-81.26V134.1L407,109.44V219l-.3.2.51.61-115.53,81.8.41,108.65,22.33,15.05,71.36-45v-36.7l-51.53-33.36,26-19.7,38.71,24.76,17.68-13.14V191.76l30.23,24.86V317.86l-30.34,22.23v55.78h-.61l.71.91L314.83,461.49ZM261.05,258V78.31h.2l-.31-.82L313.3,50l.1.2.2-.2,82,47.81-23.84,21.33L312.5,84.58,291.28,95.7V232.35Z"
    />
</svg>